<?xml version="1.0" encoding="UTF-8" standalone="no"?>
<svg
   xmlns:dc="http://purl.org/dc/elements/1.1/"
   xmlns:cc="http://creativecommons.org/ns#"
   xmlns:rdf="http://www.w3.org/1999/02/22-rdf-syntax-ns#"
   xmlns:svg="http://www.w3.org/2000/svg"
   xmlns="http://www.w3.org/2000/svg"
   xmlns:sodipodi="http://sodipodi.sourceforge.net/DTD/sodipodi-0.dtd"
   xmlns:inkscape="http://www.inkscape.org/namespaces/inkscape"
   version="1.1"
   id="svg2"
   xml:space="preserve"
   width="1357.84"
   height="622.93335"
   viewBox="0 0 1357.84 622.93335"
   sodipodi:docname="GLS_Logo_2021_RGB_GLSBlue - white background.ai"><metadata
     id="metadata8"><rdf:RDF><cc:Work
         rdf:about=""><dc:format>image/svg+xml</dc:format><dc:type
           rdf:resource="http://purl.org/dc/dcmitype/StillImage" /></cc:Work></rdf:RDF></metadata><defs
     id="defs6"><clipPath
       clipPathUnits="userSpaceOnUse"
       id="clipPath18"><path
         d="M 0,467.2 H 1018.382 V 0 H 0 Z"
         id="path16" /></clipPath></defs><sodipodi:namedview
     pagecolor="#ffffff"
     bordercolor="#666666"
     borderopacity="1"
     objecttolerance="10"
     gridtolerance="10"
     guidetolerance="10"
     inkscape:pageopacity="0"
     inkscape:pageshadow="2"
     inkscape:window-width="640"
     inkscape:window-height="480"
     id="namedview4" /><g
     id="g10"
     inkscape:groupmode="layer"
     inkscape:label="GLS_Logo_2021_RGB_GLSBlue - white background"
     transform="matrix(1.3333333,0,0,-1.3333333,0,622.93333)"><g
       id="g12"><g
         id="g14"
         clip-path="url(#clipPath18)"><g
           id="g20"
           transform="translate(879.0624,186.3004)"><path
             d="m 0,0 c 25.627,0 46.4,-20.774 46.4,-46.4 0,-25.626 -20.773,-46.401 -46.4,-46.401 -25.626,0 -46.399,20.775 -46.399,46.401 C -46.399,-20.774 -25.626,0 0,0"
             style="fill:#ffd100;fill-opacity:1;fill-rule:nonzero;stroke:none"
             id="path22" /></g><g
           id="g24"
           transform="translate(228.2475,242.9767)"><path
             d="m 0,0 v -60.711 h 50.511 c -7.378,-11.581 -24.015,-17.747 -35.302,-17.747 -38.021,0 -57.033,21.673 -57.033,65.398 0,48.288 25.095,73.002 74.903,73.002 19.772,0 45.627,-4.942 73.382,-13.688 v 72.622 c -7.984,3.421 -20.151,6.083 -35.74,8.745 -15.97,2.662 -30.037,3.802 -42.204,3.802 -49.429,0 -88.591,-13.308 -117.868,-39.923 -29.277,-26.615 -44.106,-62.355 -44.106,-107.602 0,-41.443 11.407,-74.143 34.22,-98.096 22.813,-24.334 53.611,-36.501 92.393,-36.501 38.944,0 74.725,20.213 86.255,45.867 l -0.249,-41.304 H 135.49 V 0 Z"
             style="fill:#061ab1;fill-opacity:1;fill-rule:nonzero;stroke:none"
             id="path26" /></g><g
           id="g28"
           transform="translate(391.5277,96.8404)"><path
             d="M 0,0 V 272.997 H 87.45 V 71.101 h 95.434 l 0,-71.101 z"
             style="fill:#061ab1;fill-opacity:1;fill-rule:nonzero;stroke:none"
             id="path30" /></g><g
           id="g32"
           transform="translate(602.1777,103.6842)"><path
             d="m 0,0 v 74.522 c 12.928,-4.181 28.137,-7.604 45.247,-10.645 17.109,-3.042 31.938,-4.564 44.485,-4.564 21.292,0 32.319,5.324 32.319,14.83 0,6.084 -3.422,9.126 -19.011,12.547 l -30.417,6.844 c -52.091,11.786 -76.425,38.022 -76.425,82.507 0,29.277 10.266,52.471 30.418,69.58 20.152,16.73 48.288,25.095 83.648,25.095 24.334,0 61.595,-4.944 84.408,-10.646 v -71.101 c -11.786,3.041 -25.855,6.083 -42.964,8.745 -17.11,2.661 -30.417,3.802 -40.304,3.802 -18.63,0 -29.276,-5.323 -29.276,-14.829 0,-5.703 4.942,-9.505 15.208,-12.166 l 35.361,-8.365 C 184.406,153.989 208.36,127.373 208.36,82.127 208.36,53.23 197.714,30.418 176.802,13.688 155.891,-3.042 126.993,-11.406 90.112,-11.406 55.132,-11.406 19.772,-6.463 0,0"
             style="fill:#061ab1;fill-opacity:1;fill-rule:nonzero;stroke:none"
             id="path34" /></g></g></g></g></svg>
