<?xml version="1.0" encoding="UTF-8"?>
<svg id="Vrstva_1" data-name="Vrstva 1" xmlns="http://www.w3.org/2000/svg" version="1.1" viewBox="0 0 60.75 25.04">
  <defs>
    <style>
      .cls-1 {
        fill: #006d57;
      }

      .cls-1, .cls-2 {
        stroke-width: 0px;
      }

      .cls-2 {
        fill: #7eea00;
      }
    </style>
  </defs>
  <path class="cls-2" d="M54.3,7.59l-3.39-1.96c-.66-.38-1.47-.38-2.12,0l-3.4,1.96c-.65.38-1.06,1.08-1.06,1.84v3.92c0,.76.4,1.46,1.06,1.84l3.39,1.96c.09.05.18.1.27.13v2.03c0,.21.17.38.38.38h.71c.22,0,.4-.18.4-.4v-1.97c.12-.04.25-.1.36-.17l3.39-1.96c.65-.38,1.06-1.08,1.06-1.84v-3.92c0-.76-.41-1.46-1.06-1.84M49.05,15.58l-2.92-1.68c-.2-.11-.32-.32-.32-.55v-.88l3.23,1.76v1.36ZM49.05,12.81l-3.23-1.76v-1.31l3.23,1.76v1.31ZM49.84,10.24l-3.12-1.7,2.8-1.62c.1-.06.21-.09.31-.09.11,0,.22.03.32.09l2.67,1.54-2.98,1.78ZM53.87,13.35c0,.23-.12.44-.31.55l-3.01,1.74v-4.08l3.33-1.98v3.77Z"/>
  <path class="cls-1" d="M11.25,19.68c1.86,0,3.64-.81,4.75-2.33.77-1.05,1.13-2.37,1.13-3.66s-.36-2.61-1.13-3.66c-1.11-1.52-2.89-2.32-4.75-2.33-1.86,0-3.63.81-4.74,2.33-.77,1.05-1.13,2.37-1.13,3.66s.36,2.61,1.13,3.66c1.11,1.52,2.88,2.32,4.74,2.33M8.39,12.32c.43-1.29,1.45-2.32,2.87-2.32,1.41,0,2.44,1.03,2.87,2.32.13.41.23.91.23,1.38s-.09.96-.23,1.37c-.43,1.29-1.46,2.32-2.87,2.32-1.42,0-2.44-1.03-2.87-2.32-.14-.41-.23-.91-.23-1.37s.09-.97.23-1.38"/>
  <path class="cls-1" d="M36.53,19.66c1.89.07,3.16-.25,4.11-.8.19-.11.23-.24.23-.58v-1.53c0-.31-.19-.46-.48-.27-1.02.65-2.25,1.05-3.82.93-1.58-.12-2.87-1.23-3-2.79h7.78c.17,0,.31-.13.32-.32.13-2.13-.49-6.6-5.27-6.6-3.5,0-5.02,2.35-5.53,4.34-.14.53-.2,1.1-.2,1.64,0,1.29.36,2.61,1.13,3.66,1.11,1.52,2.89,2.25,4.74,2.32M36.39,9.98c1.15,0,2.5.66,2.5,2.53h-5.3c0-.87.73-2.53,2.8-2.53"/>
  <path class="cls-1" d="M29.2,11.75c-.01-2.05-1.82-4.06-5.15-4.06-3.5,0-5.29,2.05-5.46,4.37,0,.16,0,.24,0,.45v6.87c0,.17.15.3.34.3h1.97c.18,0,.34-.14.34-.3v-6.87c0-1.46.72-2.53,2.8-2.53,1.15,0,2.5.66,2.5,2.53h0v6.86c0,.17.15.31.34.31h1.97c.19,0,.34-.14.34-.31v-7.62Z"/>
</svg>